<?xml version="1.0" encoding="UTF-8" standalone="no"?>
<!-- Created with Inkscape (http://www.inkscape.org/) -->

<svg
   width="16"
   height="16"
   viewBox="0 0 16 16"
   version="1.1"
   id="svg1"
   xml:space="preserve"
   inkscape:version="1.4.4 (dcaf3e7, 2026-05-05)"
   sodipodi:docname="Tails and Paws 2D9 Plano.svg"
   inkscape:export-filename="Tails and Paws 2D9 16.svg"
   inkscape:export-xdpi="96"
   inkscape:export-ydpi="96"
   xmlns:inkscape="http://www.inkscape.org/namespaces/inkscape"
   xmlns:sodipodi="http://sodipodi.sourceforge.net/DTD/sodipodi-0.dtd"
   xmlns="http://www.w3.org/2000/svg"
   xmlns:svg="http://www.w3.org/2000/svg"><sodipodi:namedview
     id="namedview1"
     pagecolor="#505050"
     bordercolor="#eeeeee"
     borderopacity="1"
     inkscape:showpageshadow="0"
     inkscape:pageopacity="0"
     inkscape:pagecheckerboard="0"
     inkscape:deskcolor="#505050"
     inkscape:document-units="px"
     inkscape:zoom="2.0152543"
     inkscape:cx="138.69217"
     inkscape:cy="155.56349"
     inkscape:window-width="1920"
     inkscape:window-height="1057"
     inkscape:window-x="-8"
     inkscape:window-y="-8"
     inkscape:window-maximized="1"
     inkscape:current-layer="svg1"
     inkscape:export-bgcolor="#ffffff00"
     inkscape:lockguides="false"><inkscape:page
       x="0"
       y="0"
       width="16"
       height="16"
       id="page2"
       margin="0"
       bleed="0" /></sodipodi:namedview><defs
     id="defs1" /><path
     style="display:inline;fill:#227b57;stroke:none;stroke-width:0.0156287"
     d="m 4.4203808,5.5336054 0.015627,-0.046886 C 3.2786544,4.8105715 3.2773195,3.0773933 3.6948411,1.9702694 3.7771508,1.7520141 3.8575948,1.5326978 3.9738304,1.3294948 4.1150133,1.0826808 4.2842518,0.84570235 4.4831243,0.64183336 4.5896388,0.53264242 4.768561,0.42783213 4.8423547,0.29800255 4.5370326,0.241318 4.2273799,0.34078477 3.9515209,0.46514053 3.5178016,0.66065921 3.1022071,0.91343091 2.763742,1.2513514 1.6442599,2.3690335 0.98388158,4.0195316 1.6408297,5.5492348 c 0.1193201,0.2778373 0.2830182,0.5810843 0.4983808,0.7964464 0.1331369,0.1331377 0.3008711,0.2336286 0.468245,0.3170472 0.049346,0.024593 0.1250782,0.074998 0.1825754,0.048984 C 2.8497739,6.6846834 2.8247899,6.5560391 2.8331189,6.502583 2.8620195,6.3170808 2.8797911,6.090753 2.973427,5.9245517 3.033736,5.8175045 3.1829512,5.7408978 3.2951165,5.7008057 3.6038821,5.590442 4.09533,5.4562199 4.4203808,5.5336054 M 4.6704396,0.34488869 v 0.0156297 C 4.1358604,0.72114563 3.7256688,1.2098976 3.4562274,1.7983557 3.3778256,1.9695844 3.3469589,2.1601326 3.2693582,2.3297301 3.2168631,2.4444584 3.1263465,2.5399059 3.0741566,2.657932 3.0059291,2.812227 2.9593335,3.0013441 2.8418854,3.126792 2.8162989,3.0402316 2.8320217,2.9486668 2.8058646,2.8611046 2.7573634,2.6987448 2.6065205,2.6959392 2.5209912,2.8300763 2.3780931,3.054188 2.3489483,3.4057213 2.1385957,3.5800228 2.0909263,3.334221 2.1046867,3.1232453 2.121568,2.8767335 2.1309995,2.7390011 2.1217965,2.5868341 2.1692619,2.4547594 2.3750264,1.8821972 2.9344839,1.3621034 3.3888884,0.98442306 3.7314716,0.69968294 4.209769,0.3646775 4.6704396,0.34488978 M 4.4985242,6.0649815 C 4.3749628,6.0136067 4.2602295,5.9591693 4.1234362,5.9558098 3.0217393,5.9287507 3.0616157,7.307882 2.6651462,8.0185647 2.5128899,8.2914885 2.2646164,8.4726509 2.0135661,8.6480889 1.8785362,8.7424508 1.7099553,8.8152432 1.6181463,8.9562974 1.1132076,9.7320772 1.4663104,10.922278 2.0760927,11.535015 c 0.1356725,0.136329 0.3002967,0.328718 0.4842354,0.401076 0.052958,0.02083 0.098164,-0.01727 0.067254,-0.07155 C 2.5316258,11.696023 2.355867,11.551982 2.2511801,11.378725 1.8916846,10.783767 1.4521974,9.9343103 1.8005533,9.2375996 2.0262679,8.7861699 2.5428403,8.5743296 2.7754996,8.1123353 3.0259839,7.6149461 3.1433173,7.016283 3.4789222,6.5650983 3.6871063,6.2852175 4.0195681,6.1312717 4.3578657,6.2533681 4.5282086,6.3148486 4.6348173,6.4004441 4.7798399,6.5025835 4.7495451,6.3736628 4.5875493,6.2626028 4.5927182,6.1274953 4.6020363,5.8839221 4.8546454,5.6865999 5.0142702,5.5342213 5.4874022,5.0825665 6.1000903,4.9235962 6.7334228,5.0430389 7.0549175,5.1036708 7.3633989,5.2417864 7.6867719,5.2835473 L 7.6086283,5.1741465 C 8.0353449,5.1102332 8.4409031,4.8885742 8.8745495,4.8213193 9.9591286,4.6531121 11.28135,5.0966105 11.562682,6.283782 h 0.01563 c 0,-0.1006913 -0.05263,-0.3324994 -0.01071,-0.417066 0.07218,-0.1456553 0.382613,-0.035433 0.479581,0.0086 0.412785,0.1874424 0.545539,0.587852 0.658597,0.9867284 0.199113,0.7024774 0.258713,1.4188817 0.6921,2.0317263 0.324842,0.459353 0.735337,0.9980167 0.678376,1.5941233 -0.02864,0.299744 -0.09244,0.608469 -0.236602,0.875205 -0.03857,0.07136 -0.171316,0.228032 -0.110534,0.308931 0.103364,0.137573 0.31657,-0.235631 0.365417,-0.308931 0.240078,-0.360251 0.345494,-0.788825 0.294292,-1.219036 C 14.301941,9.4141092 13.640069,9.0779857 13.304157,8.4874225 12.891165,7.7613493 13.222056,6.8158662 12.760483,6.1274942 12.469395,5.6933753 11.981075,5.3883613 11.500168,5.7055201 11.125396,4.597734 9.5967533,4.3169168 8.5932355,4.6275403 8.3460834,4.7040421 8.1165158,4.8129027 7.8899459,4.9361095 7.7915118,4.9896362 7.6600608,5.1036018 7.5461154,5.1129575 7.4580149,5.120192 7.3409877,5.014312 7.2647992,4.9750126 7.0871363,4.8833703 6.897818,4.8231428 6.7021669,4.7834887 6.0225292,4.6457413 5.3074816,4.8366272 4.8415717,5.361689 4.6715565,5.5532904 4.5100447,5.8007927 4.4985255,6.0649794 M 9.9373006,8.5499379 C 10.079446,8.3481698 10.320042,8.2398272 10.562448,8.2231337 c 0.123287,-0.0085 0.298526,0.036083 0.403003,-0.046006 0.142322,-0.1118228 0.03953,-0.3199662 -0.121687,-0.3297941 -0.278546,-0.016978 -0.590366,0.079466 -0.812691,0.2456211 C 9.6828513,8.3532028 9.5053144,8.9439749 9.6075316,9.3626276 9.6899103,9.7000284 10.025856,10.008238 10.390532,9.9304328 10.79611,9.8439005 10.927094,9.373449 10.80158,9.0187976 10.670689,8.6489485 10.316409,8.4434023 9.9373006,8.5499379 M 6.5302515,8.6280812 C 5.7864653,8.254788 5.2022652,9.6339625 5.9519912,9.9583986 6.3276849,10.120976 6.7170355,9.828019 6.8311635,9.4720285 6.9425037,9.1247322 6.8267911,8.6331438 6.6099628,8.3467647 6.4026723,8.0729835 5.9169315,7.826679 5.5612862,7.9157096 5.4041071,7.9550576 5.3687854,8.180243 5.5150638,8.2578638 c 0.1068293,0.056688 0.2578702,0.019759 0.3744126,0.027785 0.2527052,0.017403 0.4932317,0.1329791 0.6407751,0.3424328 m 5.0949455,1.000234 c -0.05081,0.159954 -0.06337,0.3357384 -0.146108,0.4844894 -0.07502,0.134857 -0.19904,0.222873 -0.305725,0.329599 -0.215571,0.215659 -0.374516,0.521264 -0.405079,0.826921 -0.01068,0.106842 -0.006,0.463576 0.198253,0.3166 0.10451,-0.07521 0.06924,-0.324333 0.102709,-0.441629 0.06334,-0.22194 0.151828,-0.429935 0.275466,-0.625147 0.09009,-0.142245 0.212424,-0.25844 0.26441,-0.421974 0.03062,-0.09633 0.138789,-0.4280992 0.01608,-0.4688594 M 8.1868955,9.6980906 C 7.7800456,9.7713166 6.982138,10.112642 7.2728958,10.644178 c 0.038595,0.07056 0.09127,0.131132 0.1482548,0.187315 0.07243,0.07142 0.1552102,0.128566 0.2499992,0.166647 0.1336998,0.05371 0.3151788,-0.0299 0.4219742,-0.112175 0.048476,-0.03734 0.1175025,-0.142075 0.1875444,-0.124618 0.187572,0.04674 0.2924457,0.300474 0.5313743,0.251757 0.3010174,-0.06137 0.6282283,-0.474865 0.463363,-0.775271 C 9.108513,9.9337436 8.537485,9.6349885 8.1868903,9.6980902 M 5.0299,9.7377202 c -0.096238,0.3257018 0.1578309,0.6294128 0.2760467,0.9064618 0.095194,0.223094 0.095496,0.500313 0.059019,0.734548 -0.015223,0.09776 -0.00312,0.246671 0.1337844,0.230173 0.1746912,-0.02104 0.1823526,-0.365015 0.1692614,-0.495861 C 5.6310245,10.743384 5.3634947,10.461764 5.205687,10.144065 5.1452645,10.022423 5.1313315,9.8269212 5.0299004,9.73772 m -2.2817869,2.891304 c -0.1355718,-0.05729 -0.2939635,-0.05602 -0.4376022,-0.03549 -0.6273514,0.08964 -0.9186058,0.747749 -0.6960428,1.317042 0.1247168,0.319011 0.6156964,0.66207 0.9773586,0.562633 -0.039071,0.143138 -0.1090852,0.28496 -0.08925,0.437601 0.059173,0.455345 0.6636183,0.626287 1.0425983,0.688916 C 4.3066761,15.725563 5.2884161,15.299492 5.842589,14.798754 6.2598621,14.421715 6.403087,13.694892 5.780074,13.426085 5.919678,13.360705 6.0477893,13.298748 6.1478549,13.17601 6.4548485,12.799459 6.3288938,12.182357 5.9676178,11.886103 5.5732303,11.5627 4.8719067,11.571791 4.561038,12.003874 4.3017775,11.243718 3.1411753,11.258982 2.7844349,11.925734 c -0.1178007,0.22017 -0.1101308,0.47246 -0.036322,0.703289 m 9.2209121,-0.625146 h -0.01563 c -0.175689,-0.376739 -0.766556,-0.422475 -1.109635,-0.307015 -0.54087,0.182028 -0.807305,0.873801 -0.517676,1.369764 0.09979,0.170889 0.256728,0.254688 0.423904,0.343831 -0.623013,0.268808 -0.479788,0.995629 -0.06252,1.37267 0.554173,0.500737 1.535914,0.926808 2.297414,0.800967 0.378979,-0.06262 0.983426,-0.233571 1.042597,-0.688914 0.01984,-0.152642 -0.05018,-0.294461 -0.08925,-0.437603 0.355816,0.09783 0.84736,-0.246005 0.967951,-0.562632 0.197437,-0.5184 -0.02229,-1.131864 -0.577234,-1.296612 -0.189523,-0.05627 -0.358011,-0.04377 -0.547003,-5.74e-4 0.128973,-0.458956 -0.09708,-0.92652 -0.547003,-1.102386 -0.451248,-0.176386 -1.139447,-0.02373 -1.265923,0.508497 m 1.562867,0.859577 c 0.08967,-0.05905 0.169472,-0.130023 0.281316,-0.139198 0.266151,-0.02184 0.561747,0.0434 0.746895,0.249225 0.361581,0.401951 0.190039,1.087694 -0.293664,1.277729 -0.114214,0.04487 -0.236459,0.07049 -0.35946,0.0651 -0.150506,-0.0066 -0.308737,-0.06484 -0.4376,-0.140043 0.08529,0.179249 0.233649,0.169507 0.351427,0.289286 0.0615,0.06254 0.06945,0.236186 0.06931,0.320232 -6.82e-4,0.416107 -0.53752,0.533053 -0.858346,0.547619 -0.777349,0.03529 -1.703908,-0.242771 -2.281773,-0.783447 -0.327522,-0.306448 -0.365939,-0.749269 0.01561,-1.027609 0.08568,-0.06251 0.174443,-0.106991 0.281317,-0.111886 v -0.01563 c -0.467653,-0.08337 -0.745552,-0.624972 -0.534341,-1.04712 0.232246,-0.464192 0.82516,-0.601335 1.253259,-0.326791 0.139917,0.08973 0.215031,0.202633 0.265687,0.358049 0.0081,-0.141435 0.002,-0.246891 0.0762,-0.375088 0.42108,-0.728597 1.713265,-0.233423 1.5575,0.593889 -0.01878,0.09979 -0.07769,0.183119 -0.133351,0.265688 M 4.4828941,12.394585 h 0.01563 c 0.057481,-0.176359 0.1523565,-0.274335 0.3125734,-0.366044 0.404377,-0.231466 0.9011408,-0.174784 1.1652387,0.241015 0.270274,0.425519 0.017274,1.049895 -0.4932062,1.140892 v 0.01562 c 0.106871,0.0049 0.1956319,0.04939 0.2813156,0.111887 0.3815571,0.278341 0.3431423,0.72116 0.015616,1.027609 -0.5778644,0.540676 -1.5044218,0.818735 -2.2817727,0.783447 -0.3208247,-0.01456 -0.8576515,-0.131513 -0.8583469,-0.547618 -1.103e-4,-0.08404 0.00782,-0.257693 0.069316,-0.320232 0.1177772,-0.11978 0.2661358,-0.110038 0.3514276,-0.289287 -0.1288658,0.0752 -0.2870938,0.133452 -0.4376028,0.140043 -0.1170267,0.0052 -0.2345415,-0.01747 -0.3438308,-0.05899 -0.8452759,-0.321164 -0.4797419,-1.65472 0.4063458,-1.547262 0.1226705,0.01487 0.2132428,0.08798 0.312573,0.153405 -0.3905199,-0.579357 0.2376503,-1.28194 0.8752058,-1.198886 0.3469002,0.04519 0.7003568,0.332851 0.6095176,0.714397 m 8.2831938,-0.508884 c -0.149048,0.02322 -0.302632,0.09152 -0.398073,0.212167 -0.30555,0.386232 0.02816,0.939382 0.507474,0.870286 0.695757,-0.100301 0.598694,-1.192774 -0.109401,-1.082453 m -9.127142,0.01563 c -0.082816,0.0129 -0.1632348,0.03749 -0.2344297,0.08239 -0.5221089,0.329197 -0.1203744,1.087722 0.437602,0.997883 0.6963492,-0.112116 0.4701056,-1.185165 -0.2031723,-1.08027 m 7.501761,0.203568 c -0.692892,0.124928 -0.496134,1.236828 0.203173,1.110747 0.69074,-0.12454 0.481031,-1.234106 -0.203173,-1.110747 m -5.9388943,0.01563 C 4.5208007,12.243313 4.672992,13.357614 5.3737286,13.231273 6.0669281,13.10629 5.9017629,11.994328 5.2018127,12.120528 m 1.0940063,1.102375 c 0.5325782,0.393321 1.0762223,0.310125 1.5941243,-0.06032 0.1290772,-0.09233 0.247084,-0.186785 0.3594588,-0.299138 0.037367,-0.03736 0.09763,-0.124161 0.1562862,-0.124161 0.091822,0 0.2435269,0.20743 0.3125735,0.266855 0.2175359,0.187226 0.4964276,0.394248 0.7814335,0.460131 0.2197717,0.0508 0.4334571,0.0068 0.6251467,-0.109956 0.08371,-0.051 0.229502,-0.17435 0.09043,-0.263011 -0.05512,-0.03514 -0.144095,0.01762 -0.199833,0.03362 -0.1389736,0.03989 -0.2773211,0.08063 -0.4219742,0.04886 -0.4036873,-0.0887 -0.7172812,-0.404182 -1.094006,-0.546763 L 8.7182602,12.207039 C 8.5727331,12.247889 8.4213322,12.42642 8.2962861,12.517237 7.9686493,12.755192 7.569482,13.127313 7.155394,13.186954 7.0078127,13.208214 6.8431834,13.165064 6.7021626,13.124584 6.5170651,13.071454 6.3663519,12.97862 6.2958174,13.222904 m 7.2204446,-0.35946 -0.01563,0.03126 0.01563,-0.03126 m -10.5180931,0.01563 0.031257,0.03126 -0.031257,-0.03126 m 10.8775521,0.0854 c -0.718411,0.129526 -0.532627,1.237945 0.187544,1.108381 0.09629,-0.01732 0.18534,-0.05025 0.265687,-0.106652 0.512815,-0.35993 0.132787,-1.107388 -0.453231,-1.001729 m -11.4714416,0.01568 c -0.7290042,0.137531 -0.4654279,1.232006 0.2344305,1.108344 0.094989,-0.01679 0.1851177,-0.04658 0.2654584,-0.10143 0.5279424,-0.360457 0.057765,-1.112117 -0.4998889,-1.006913 m 9.7366596,0.265626 c -0.377559,0.06672 -0.774772,0.359964 -0.930858,0.711672 -0.0903,0.20348 -0.109741,0.44537 0.04335,0.625134 0.146152,0.171612 0.331471,0.198004 0.543676,0.213737 0.06668,0.005 0.140374,-0.0307 0.203171,0.0013 0.239885,0.122254 0.421241,0.29788 0.71892,0.244209 0.338572,-0.06105 0.441163,-0.389148 0.437543,-0.693667 -0.0062,-0.5209 -0.417315,-1.20814 -1.015804,-1.102387 m -8.0018781,0.01564 c -0.5069841,0.09145 -0.7679763,0.705906 -0.7657926,1.164891 0.00191,0.399074 0.2587323,0.69654 0.6720209,0.623832 0.2073096,-0.03648 0.3185347,-0.177577 0.5001175,-0.243897 0.058545,-0.02139 0.1267929,0.0102 0.1875435,0.0057 0.2405323,-0.01783 0.4694799,-0.05939 0.597025,-0.291868 0.1128423,-0.205712 0.054489,-0.448625 -0.059471,-0.640809 -0.2101084,-0.354323 -0.7001217,-0.69568 -1.1314393,-0.617887 z"
     id="path2" /></svg>
